RobotoExtremo-XOPQmin.ufo
<glyph name="numbersign" format="2">
  <advance width="1364"/>
  <unicode hex="0023"/>
  <outline>
    <contour>
      <point x="216.0" y="-20.0" type="line"/>
      <point x="270.0" y="-20.0" type="line"/>
      <point x="782.0" y="1626.0" type="line"/>
      <point x="728.0" y="1626.0" type="line"/>
    </contour>
    <contour>
      <point x="632.0" y="-20.0" type="line"/>
      <point x="686.0" y="-20.0" type="line"/>
      <point x="1198.0" y="1626.0" type="line"/>
      <point x="1144.0" y="1626.0" type="line"/>
    </contour>
    <contour>
      <point x="64.0" y="404.0" type="line"/>
      <point x="1225.0" y="404.0" type="line"/>
      <point x="1225.0" y="542.0" type="line"/>
      <point x="64.0" y="542.0" type="line"/>
    </contour>
    <contour>
      <point x="190.0" y="1064.0" type="line"/>
      <point x="1350.0" y="1064.0" type="line"/>
      <point x="1350.0" y="1202.0" type="line"/>
      <point x="190.0" y="1202.0" type="line"/>
    </contour>
  </outline>
</glyph>
<glyph name="dollar" format="2">
  <advance width="920"/>
  <unicode hex="0024"/>
  <outline>
    <contour>
      <point x="90.0" y="500.0" type="line" smooth="yes"/>
      <point x="90.0" y="272.0"/>
      <point x="297.0" y="6.0"/>
      <point x="469.0" y="6.0" type="qcurve" smooth="yes"/>
      <point x="640.0" y="6.0"/>
      <point x="840.0" y="272.0"/>
      <point x="840.0" y="480.0" type="qcurve" smooth="yes"/>
      <point x="840.0" y="688.0"/>
      <point x="696.0" y="925.0"/>
      <point x="500.0" y="999.0" type="qcurve" smooth="yes"/>
      <point x="304.0" y="1076.0"/>
      <point x="171.0" y="1209.0"/>
      <point x="171.0" y="1314.0" type="qcurve" smooth="yes"/>
      <point x="171.0" y="1439.0"/>
      <point x="311.0" y="1581.0"/>
      <point x="459.0" y="1581.0" type="qcurve" smooth="yes"/>
      <point x="607.0" y="1581.0"/>
      <point x="757.0" y="1417.0"/>
      <point x="757.0" y="1283.0" type="qcurve" smooth="yes"/>
      <point x="757.0" y="1269.0" type="line"/>
      <point x="811.0" y="1269.0" type="line"/>
      <point x="811.0" y="1283.0" type="line" smooth="yes"/>
      <point x="811.0" y="1487.0"/>
      <point x="621.0" y="1770.0"/>
      <point x="460.0" y="1770.0" type="qcurve" smooth="yes"/>
      <point x="299.0" y="1770.0"/>
      <point x="117.0" y="1508.0"/>
      <point x="117.0" y="1314.0" type="qcurve" smooth="yes"/>
      <point x="117.0" y="1116.0"/>
      <point x="286.0" y="896.0"/>
      <point x="482.0" y="815.0" type="qcurve" smooth="yes"/>
      <point x="678.0" y="737.0"/>
      <point x="786.0" y="596.0"/>
      <point x="786.0" y="480.0" type="qcurve" smooth="yes"/>
      <point x="786.0" y="352.0"/>
      <point x="622.0" y="184.0"/>
      <point x="469.0" y="184.0" type="qcurve" smooth="yes"/>
      <point x="315.0" y="184.0"/>
      <point x="144.0" y="348.0"/>
      <point x="144.0" y="500.0" type="qcurve" smooth="yes"/>
      <point x="144.0" y="515.0" type="line"/>
      <point x="90.0" y="515.0" type="line"/>
    </contour>
    <contour>
      <point x="439.0" y="-110.0" type="line"/>
      <point x="489.0" y="-110.0" type="line"/>
      <point x="489.0" y="130.0" type="line"/>
      <point x="489.0" y="140.0" type="line"/>
      <point x="489.0" y="838.0" type="line"/>
      <point x="439.0" y="838.0" type="line"/>
    </contour>
    <contour>
      <point x="439.0" y="838.0" type="line"/>
      <point x="489.0" y="838.0" type="line"/>
      <point x="491.0" y="1946.0" type="line"/>
      <point x="441.0" y="1946.0" type="line"/>
      <point x="441.0" y="1606.0" type="line"/>
      <point x="441.0" y="1596.0" type="line"/>
    </contour>
  </outline>
</glyph>
<glyph name="ampersand" format="2">
  <advance width="994"/>
  <unicode hex="0026"/>
  <outline>
    <contour>
      <point x="80.0" y="380.0" type="qcurve" smooth="yes"/>
      <point x="80.0" y="220.0"/>
      <point x="260.0" y="-20.0"/>
      <point x="420.0" y="-20.0" type="qcurve" smooth="yes"/>
      <point x="630.0" y="-20.0"/>
      <point x="914.0" y="380.0"/>
      <point x="914.0" y="674.0" type="qcurve"/>
      <point x="860.0" y="674.0" type="line"/>
      <point x="860.0" y="420.0"/>
      <point x="600.0" y="132.0"/>
      <point x="420.0" y="132.0" type="qcurve" smooth="yes"/>
      <point x="290.0" y="132.0"/>
      <point x="134.0" y="270.0"/>
      <point x="134.0" y="380.0" type="qcurve" smooth="yes"/>
      <point x="134.0" y="490.0"/>
      <point x="263.0" y="652.0"/>
      <point x="385.0" y="740.0" type="qcurve" smooth="yes"/>
      <point x="500.0" y="840.0" type="line" smooth="yes"/>
      <point x="581.0" y="900.0"/>
      <point x="674.0" y="1060.0"/>
      <point x="674.0" y="1180.0" type="qcurve" smooth="yes"/>
      <point x="674.0" y="1310.0"/>
      <point x="550.0" y="1486.0"/>
      <point x="445.0" y="1486.0" type="qcurve" smooth="yes"/>
      <point x="340.0" y="1486.0"/>
      <point x="208.0" y="1300.0"/>
      <point x="208.0" y="1160.0" type="qcurve" smooth="yes"/>
      <point x="208.0" y="1060.0"/>
      <point x="261.0" y="870.0"/>
      <point x="360.0" y="740.0" type="qcurve" smooth="yes"/>
      <point x="904.0" y="0.0" type="line"/>
      <point x="970.0" y="0.0" type="line"/>
      <point x="405.0" y="840.0" type="line" smooth="yes"/>
      <point x="315.0" y="960.0"/>
      <point x="262.0" y="1090.0"/>
      <point x="262.0" y="1160.0" type="qcurve" smooth="yes"/>
      <point x="262.0" y="1230.0"/>
      <point x="360.0" y="1334.0"/>
      <point x="445.0" y="1334.0" type="qcurve" smooth="yes"/>
      <point x="530.0" y="1334.0"/>
      <point x="620.0" y="1240.0"/>
      <point x="620.0" y="1170.0" type="qcurve" smooth="yes"/>
      <point x="620.0" y="1110.0"/>
      <point x="538.0" y="1010.0"/>
      <point x="470.0" y="960.0" type="qcurve" smooth="yes"/>
      <point x="355.0" y="860.0" type="line" smooth="yes"/>
      <point x="233.0" y="766.0"/>
      <point x="80.0" y="540.0"/>
    </contour>
  </outline>
</glyph>
<glyph name="quotesingle" format="2">
  <advance width="280"/>
  <unicode hex="0027"/>
  <outline>
    <contour>
      <point x="110.0" y="966.0" type="line"/>
      <point x="100.0" y="1320.0" type="line"/>
      <point x="100.0" y="1456.0" type="line"/>
      <point x="180.0" y="1456.0" type="line"/>
      <point x="180.0" y="1320.0" type="line"/>
      <point x="170.0" y="966.0" type="line"/>
    </contour>
  </outline>
</glyph>
<glyph name="parenleft" format="2">
  <advance width="560"/>
  <unicode hex="0028"/>
  <outline>
    <contour>
      <point x="524.0" y="-436.0" type="qcurve"/>
      <point x="524.0" y="-276.0" type="line"/>
      <point x="390.0" y="-200.0"/>
      <point x="179.0" y="160.0"/>
      <point x="179.0" y="508.0" type="qcurve" smooth="yes"/>
      <point x="179.0" y="532.0" type="line" smooth="yes"/>
      <point x="179.0" y="880.0"/>
      <point x="390.0" y="1240.0"/>
      <point x="524.0" y="1316.0" type="qcurve"/>
      <point x="524.0" y="1476.0" type="line"/>
      <point x="360.0" y="1380.0"/>
      <point x="124.0" y="920.0"/>
      <point x="124.0" y="525.0" type="qcurve" smooth="yes"/>
      <point x="124.0" y="515.0" type="line" smooth="yes"/>
      <point x="124.0" y="120.0"/>
      <point x="360.0" y="-340.0"/>
    </contour>
  </outline>
</glyph>
<glyph name="comma" format="2">
  <advance width="472"/>
  <unicode hex="002C"/>
  <outline>
    <contour>
      <point x="166.0" y="-218.0" type="line"/>
      <point x="188.0" y="-154.0"/>
      <point x="210.0" y="-20.0"/>
      <point x="210.0" y="70.0" type="qcurve" smooth="yes"/>
      <point x="210.0" y="220.0" type="line"/>
      <point x="282.0" y="220.0" type="line"/>
      <point x="282.0" y="70.0" type="line" smooth="yes"/>
      <point x="282.0" y="-40.0"/>
      <point x="248.0" y="-224.0"/>
      <point x="216.0" y="-291.0" type="qcurve"/>
    </contour>
  </outline>
</glyph>
<glyph name="three" format="2">
  <advance width="1156"/>
  <unicode hex="0033"/>
  <outline>
    <contour>
      <point x="212.0" y="380.0" type="line" smooth="yes"/>
      <point x="212.0" y="200.0"/>
      <point x="406.0" y="-30.0"/>
      <point x="558.0" y="-30.0" type="qcurve" smooth="yes"/>
      <point x="710.0" y="-30.0"/>
      <point x="903.0" y="200.0"/>
      <point x="903.0" y="401.0" type="qcurve" smooth="yes"/>
      <point x="903.0" y="540.0"/>
      <point x="762.0" y="730.0"/>
      <point x="650.0" y="762.0" type="qcurve"/>
      <point x="650.0" y="766.0" type="line"/>
      <point x="760.0" y="816.0"/>
      <point x="852.0" y="1000.0"/>
      <point x="852.0" y="1100.0" type="qcurve" smooth="yes"/>
      <point x="852.0" y="1270.0"/>
      <point x="691.0" y="1486.0"/>
      <point x="558.0" y="1486.0" type="qcurve" smooth="yes"/>
      <point x="425.0" y="1486.0"/>
      <point x="252.0" y="1260.0"/>
      <point x="252.0" y="1100.0" type="qcurve" smooth="yes"/>
      <point x="252.0" y="1090.0" type="line"/>
      <point x="306.0" y="1090.0" type="line"/>
      <point x="306.0" y="1100.0" type="line" smooth="yes"/>
      <point x="306.0" y="1210.0"/>
      <point x="450.0" y="1328.0"/>
      <point x="558.0" y="1328.0" type="qcurve" smooth="yes"/>
      <point x="666.0" y="1328.0"/>
      <point x="798.0" y="1210.0"/>
      <point x="798.0" y="1090.0" type="qcurve" smooth="yes"/>
      <point x="798.0" y="970.0"/>
      <point x="650.0" y="836.0"/>
      <point x="510.0" y="836.0" type="qcurve" smooth="yes"/>
      <point x="405.0" y="836.0" type="line"/>
      <point x="405.0" y="682.0" type="line"/>
      <point x="520.0" y="682.0" type="line" smooth="yes"/>
      <point x="660.0" y="682.0"/>
      <point x="848.0" y="540.0"/>
      <point x="848.0" y="400.0" type="qcurve" smooth="yes"/>
      <point x="848.0" y="260.0"/>
      <point x="690.0" y="128.0"/>
      <point x="558.0" y="128.0" type="qcurve" smooth="yes"/>
      <point x="426.0" y="128.0"/>
      <point x="266.0" y="260.0"/>
      <point x="266.0" y="380.0" type="qcurve" smooth="yes"/>
      <point x="266.0" y="390.0" type="line"/>
      <point x="212.0" y="390.0" type="line"/>
    </contour>
  </outline>
</glyph>
<glyph name="six" format="2">
  <advance width="1156"/>
  <unicode hex="0036"/>
  <outline>
    <contour>
      <point x="222.0" y="614.0" type="qcurve" smooth="yes"/>
      <point x="222.0" y="644.0" type="line" smooth="yes"/>
      <point x="222.0" y="1024.0"/>
      <point x="520.0" y="1486.0"/>
      <point x="780.0" y="1486.0" type="qcurve" smooth="yes"/>
      <point x="800.0" y="1486.0" type="line"/>
      <point x="800.0" y="1328.0" type="line"/>
      <point x="780.0" y="1328.0" type="line" smooth="yes"/>
      <point x="550.0" y="1328.0"/>
      <point x="276.0" y="1004.0"/>
      <point x="276.0" y="654.0" type="qcurve" smooth="yes"/>
      <point x="276.0" y="604.0" type="line" smooth="yes"/>
      <point x="276.0" y="344.0"/>
      <point x="460.0" y="128.0"/>
      <point x="600.0" y="128.0" type="qcurve" smooth="yes"/>
      <point x="740.0" y="128.0"/>
      <point x="894.0" y="304.0"/>
      <point x="894.0" y="464.0" type="qcurve" smooth="yes"/>
      <point x="894.0" y="624.0"/>
      <point x="740.0" y="798.0"/>
      <point x="600.0" y="798.0" type="qcurve" smooth="yes"/>
      <point x="470.0" y="798.0"/>
      <point x="270.0" y="624.0"/>
      <point x="270.0" y="464.0" type="qcurve"/>
      <point x="240.0" y="464.0" type="line"/>
      <point x="240.0" y="684.0"/>
      <point x="455.0" y="956.0"/>
      <point x="610.0" y="956.0" type="qcurve" smooth="yes"/>
      <point x="765.0" y="956.0"/>
      <point x="948.0" y="684.0"/>
      <point x="948.0" y="464.0" type="qcurve" smooth="yes"/>
      <point x="948.0" y="244.0"/>
      <point x="755.0" y="-30.0"/>
      <point x="600.0" y="-30.0" type="qcurve" smooth="yes"/>
      <point x="445.0" y="-30.0"/>
      <point x="222.0" y="274.0"/>
    </contour>
  </outline>
</glyph>
<glyph name="nine" format="2">
  <advance width="1156"/>
  <unicode hex="0039"/>
  <outline>
    <contour>
      <point x="208.0" y="1002.0" type="qcurve" smooth="yes"/>
      <point x="208.0" y="1218.0"/>
      <point x="401.0" y="1486.0"/>
      <point x="556.0" y="1486.0" type="qcurve" smooth="yes"/>
      <point x="711.0" y="1486.0"/>
      <point x="934.0" y="1182.0"/>
      <point x="934.0" y="842.0" type="qcurve" smooth="yes"/>
      <point x="934.0" y="812.0" type="line" smooth="yes"/>
      <point x="934.0" y="432.0"/>
      <point x="636.0" y="-30.0"/>
      <point x="376.0" y="-30.0" type="qcurve" smooth="yes"/>
      <point x="356.0" y="-30.0" type="line"/>
      <point x="356.0" y="128.0" type="line"/>
      <point x="376.0" y="128.0" type="line" smooth="yes"/>
      <point x="606.0" y="128.0"/>
      <point x="880.0" y="452.0"/>
      <point x="880.0" y="802.0" type="qcurve" smooth="yes"/>
      <point x="880.0" y="852.0" type="line" smooth="yes"/>
      <point x="880.0" y="1112.0"/>
      <point x="696.0" y="1328.0"/>
      <point x="556.0" y="1328.0" type="qcurve" smooth="yes"/>
      <point x="416.0" y="1328.0"/>
      <point x="262.0" y="1157.0"/>
      <point x="262.0" y="1002.0" type="qcurve" smooth="yes"/>
      <point x="262.0" y="847.0"/>
      <point x="416.0" y="678.0"/>
      <point x="556.0" y="678.0" type="qcurve" smooth="yes"/>
      <point x="686.0" y="678.0"/>
      <point x="886.0" y="847.0"/>
      <point x="886.0" y="1002.0" type="qcurve"/>
      <point x="916.0" y="1002.0" type="line"/>
      <point x="916.0" y="786.0"/>
      <point x="701.0" y="520.0"/>
      <point x="546.0" y="520.0" type="qcurve" smooth="yes"/>
      <point x="391.0" y="520.0"/>
      <point x="208.0" y="786.0"/>
    </contour>
  </outline>
</glyph>
<glyph name="A" format="2">
  <advance width="1231"/>
  <unicode hex="0041"/>
  <anchor x="590.0" y="1432.0" name="top"/>
  <outline>
    <contour>
      <point x="0.0" y="0.0" type="line"/>
      <point x="554.0" y="1466.0" type="line"/>
      <point x="679.0" y="1466.0" type="line"/>
      <point x="1231.0" y="0.0" type="line"/>
      <point x="1169.0" y="0.0" type="line"/>
      <point x="728.0" y="1170.0" type="line" smooth="yes"/>
      <point x="716" y="1203"/>
      <point x="689.0" y="1284.0"/>
      <point x="682.0" y="1317.0" type="qcurve"/>
      <point x="670.0" y="1317.0" type="line"/>
      <point x="660.0" y="1284.0"/>
      <point x="632" y="1201"/>
      <point x="621.0" y="1170.0" type="qcurve" smooth="yes"/>
      <point x="191.0" y="0.0" type="line"/>
    </contour>
    <contour>
      <point x="243.0" y="380.0" type="line"/>
      <point x="300.0" y="538.0" type="line"/>
      <point x="1001.0" y="538.0" type="line"/>
      <point x="1059.0" y="380.0" type="line"/>
    </contour>
  </outline>
</glyph>
<glyph name="C" format="2">
  <advance width="1049"/>
  <unicode hex="0043"/>
  <anchor x="581.0" y="0" name="bottom"/>
  <outline>
    <contour>
      <point x="115.0" y="682.0" type="line" smooth="yes"/>
      <point x="115.0" y="346.0"/>
      <point x="381.0" y="-30.0"/>
      <point x="581.0" y="-30.0" type="qcurve" smooth="yes"/>
      <point x="777.0" y="-30.0"/>
      <point x="978.0" y="256.0"/>
      <point x="998.0" y="456.0" type="qcurve" smooth="yes"/>
      <point x="999.0" y="466.0" type="line"/>
      <point x="944.0" y="466.0" type="line"/>
      <point x="943.0" y="456.0" type="line" smooth="yes"/>
      <point x="927.0" y="336.0"/>
      <point x="761.0" y="134.0"/>
      <point x="581.0" y="134.0" type="qcurve" smooth="yes"/>
      <point x="401.0" y="134.0"/>
      <point x="170.0" y="426.0"/>
      <point x="170.0" y="682.0" type="qcurve" smooth="yes"/>
      <point x="170.0" y="774.0" type="line" smooth="yes"/>
      <point x="170.0" y="1030.0"/>
      <point x="401.0" y="1322.0"/>
      <point x="581.0" y="1322.0" type="qcurve" smooth="yes"/>
      <point x="761.0" y="1322.0"/>
      <point x="927.0" y="1120.0"/>
      <point x="943.0" y="1000.0" type="qcurve" smooth="yes"/>
      <point x="944.0" y="990.0" type="line"/>
      <point x="999.0" y="990.0" type="line"/>
      <point x="998.0" y="1000.0" type="line" smooth="yes"/>
      <point x="978.0" y="1200.0"/>
      <point x="777.0" y="1486.0"/>
      <point x="581.0" y="1486.0" type="qcurve" smooth="yes"/>
      <point x="381.0" y="1486.0"/>
      <point x="115.0" y="1110.0"/>
      <point x="115.0" y="774.0" type="qcurve" smooth="yes"/>
    </contour>
  </outline>
</glyph>
<glyph name="D" format="2">
  <advance width="1093"/>
  <unicode hex="0044"/>
  <outline>
    <contour>
      <point x="170.0" y="0.0" type="line"/>
      <point x="170.0" y="1456.0" type="line"/>
      <point x="464.0" y="1456.0" type="line" smooth="yes"/>
      <point x="694.0" y="1456.0"/>
      <point x="978.0" y="1086.0"/>
      <point x="978.0" y="774.0" type="qcurve" smooth="yes"/>
      <point x="978.0" y="682.0" type="line" smooth="yes"/>
      <point x="978.0" y="370.0"/>
      <point x="694.0" y="0.0"/>
      <point x="464.0" y="0.0" type="qcurve" smooth="yes"/>
    </contour>
    <contour>
      <point x="224.0" y="158.0" type="line"/>
      <point x="464.0" y="158.0" type="line" smooth="yes"/>
      <point x="674.0" y="158.0"/>
      <point x="923.0" y="436.0"/>
      <point x="923.0" y="682.0" type="qcurve" smooth="yes"/>
      <point x="923.0" y="774.0" type="line" smooth="yes"/>
      <point x="923.0" y="1020.0"/>
      <point x="674.0" y="1298.0"/>
      <point x="464.0" y="1298.0" type="qcurve" smooth="yes"/>
      <point x="224.0" y="1298.0" type="line"/>
    </contour>
  </outline>
</glyph>
<glyph name="E" format="2">
  <advance width="914"/>
  <unicode hex="0045"/>
  <anchor x="488.0" y="1432.0" name="top"/>
  <outline>
    <contour>
      <point x="170.0" y="0.0" type="line"/>
      <point x="170.0" y="1456.0" type="line"/>
      <point x="836.0" y="1456.0" type="line"/>
      <point x="836.0" y="1298.0" type="line"/>
      <point x="224.0" y="1298.0" type="line"/>
      <point x="224.0" y="830.0" type="line"/>
      <point x="744.0" y="830.0" type="line"/>
      <point x="744.0" y="672.0" type="line"/>
      <point x="224.0" y="672.0" type="line"/>
      <point x="224.0" y="158.0" type="line"/>
      <point x="846.0" y="158.0" type="line"/>
      <point x="846.0" y="0.0" type="line"/>
    </contour>
  </outline>
</glyph>
<glyph name="G" format="2">
  <advance width="1082"/>
  <unicode hex="0047"/>
  <outline>
    <contour>
      <point x="115.0" y="682.0" type="qcurve" smooth="yes"/>
      <point x="115.0" y="774.0" type="line" smooth="yes"/>
      <point x="115.0" y="1110.0"/>
      <point x="381.0" y="1486.0"/>
      <point x="581.0" y="1486.0" type="qcurve" smooth="yes"/>
      <point x="777.0" y="1486.0"/>
      <point x="983.0" y="1220.0"/>
      <point x="1001.0" y="1040.0" type="qcurve" smooth="yes"/>
      <point x="1002.0" y="1030.0" type="line"/>
      <point x="947.0" y="1030.0" type="line"/>
      <point x="946.0" y="1040.0" type="line" smooth="yes"/>
      <point x="931.9917527779713" y="1140.0"/>
      <point x="761.0" y="1322.0"/>
      <point x="581.0" y="1322.0" type="qcurve" smooth="yes"/>
      <point x="401.0" y="1322.0"/>
      <point x="170.0" y="1030.0"/>
      <point x="170.0" y="774.0" type="qcurve" smooth="yes"/>
      <point x="170.0" y="682.0" type="line" smooth="yes"/>
      <point x="170.0" y="426.0"/>
      <point x="401.0" y="134.0"/>
      <point x="611.0" y="134.0" type="qcurve" smooth="yes"/>
      <point x="721.0" y="134.0"/>
      <point x="880.0" y="180.0"/>
      <point x="952.0" y="230.0" type="qcurve"/>
      <point x="952.0" y="570.0" type="line"/>
      <point x="591.0" y="570.0" type="line"/>
      <point x="591.0" y="728.0" type="line"/>
      <point x="1002.0" y="728.0" type="line"/>
      <point x="1002.0" y="160.0" type="line"/>
      <point x="940.0" y="90.0"/>
      <point x="751.7007575757576" y="-30.0"/>
      <point x="611.0" y="-30.0" type="qcurve" smooth="yes"/>
      <point x="384.0" y="-30.0"/>
      <point x="115.0" y="346.0"/>
    </contour>
  </outline>
</glyph>
<glyph name="K" format="2">
  <advance width="1131"/>
  <unicode hex="004B"/>
  <outline>
    <contour>
      <point x="170.0" y="0.0" type="line"/>
      <point x="170.0" y="1456.0" type="line"/>
      <point x="227.0" y="1456.0" type="line"/>
      <point x="227.0" y="740.0" type="line"/>
      <point x="872.0" y="1456.0" type="line"/>
      <point x="1109.0" y="1456.0" type="line"/>
      <point x="227.0" y="500.0" type="line"/>
      <point x="227.0" y="0.0" type="line"/>
    </contour>
    <contour>
      <point x="1077.0" y="0.0" type="line"/>
      <point x="431.0" y="855.0" type="line"/>
      <point x="467.0" y="894.0" type="line"/>
      <point x="1151.0" y="0.0" type="line"/>
    </contour>
  </outline>
</glyph>
<glyph name="N" format="2">
  <advance width="1460"/>
  <unicode hex="004E"/>
  <anchor x="606.0" y="1432.0" name="top"/>
  <outline>
    <contour>
      <point x="170" y="0" type="line"/>
      <point x="170" y="1456" type="line"/>
      <point x="300" y="1456" type="line"/>
      <point x="1033" y="306" type="line" smooth="yes"/>
      <point x="1052" y="276"/>
      <point x="1087" y="216"/>
      <point x="1101" y="191" type="qcurve"/>
      <point x="1111" y="191" type="line"/>
      <point x="1107" y="221"/>
      <point x="1103" y="296"/>
      <point x="1103" y="326" type="qcurve" smooth="yes"/>
      <point x="1103" y="1456" type="line"/>
      <point x="1290" y="1456" type="line"/>
      <point x="1290" y="0" type="line"/>
      <point x="1161" y="0" type="line"/>
      <point x="428" y="1140" type="line" smooth="yes"/>
      <point x="409" y="1170"/>
      <point x="374" y="1230"/>
      <point x="360" y="1255" type="qcurve"/>
      <point x="350" y="1255" type="line"/>
      <point x="354" y="1225"/>
      <point x="358" y="1150"/>
      <point x="358" y="1120" type="qcurve" smooth="yes"/>
      <point x="358" y="0" type="line"/>
    </contour>
  </outline>
</glyph>
<glyph name="Q" format="2">
  <advance width="1182"/>
  <unicode hex="0051"/>
  <outline>
    <contour>
      <point x="115.0" y="682.0" type="line" smooth="yes"/>
      <point x="115.0" y="346.0"/>
      <point x="381.0" y="-30.0"/>
      <point x="591.0" y="-30.0" type="qcurve" smooth="yes"/>
      <point x="801.0" y="-30.0"/>
      <point x="1067.0" y="346.0"/>
      <point x="1067.0" y="682.0" type="qcurve" smooth="yes"/>
      <point x="1067.0" y="774.0" type="line" smooth="yes"/>
      <point x="1067.0" y="1110.0"/>
      <point x="801.0" y="1486.0"/>
      <point x="591.0" y="1486.0" type="qcurve" smooth="yes"/>
      <point x="381.0" y="1486.0"/>
      <point x="115.0" y="1110.0"/>
      <point x="115.0" y="774.0" type="qcurve" smooth="yes"/>
    </contour>
    <contour>
      <point x="170.0" y="682.0" type="qcurve" smooth="yes"/>
      <point x="170.0" y="774.0" type="line" smooth="yes"/>
      <point x="170.0" y="1030.0"/>
      <point x="403.0" y="1322.0"/>
      <point x="591.0" y="1322.0" type="qcurve" smooth="yes"/>
      <point x="779.0" y="1322.0"/>
      <point x="1012.0" y="1030.0"/>
      <point x="1012.0" y="774.0" type="qcurve" smooth="yes"/>
      <point x="1012.0" y="682.0" type="line" smooth="yes"/>
      <point x="1012.0" y="426.0"/>
      <point x="779.0" y="134.0"/>
      <point x="591.0" y="134.0" type="qcurve" smooth="yes"/>
      <point x="403.0" y="134.0"/>
      <point x="170.0" y="426.0"/>
    </contour>
    <contour>
      <point x="1100.0" y="-250.0" type="line"/>
      <point x="1136.0" y="-120.0" type="line"/>
      <point x="596.0" y="155.0" type="line"/>
      <point x="560.0" y="30.0" type="line"/>
    </contour>
  </outline>
</glyph>
<glyph name="W" format="2">
  <advance width="1744"/>
  <unicode hex="0057"/>
  <outline>
    <contour>
      <point x="376.0" y="-10.0" type="line"/>
      <point x="528.0" y="-10.0" type="line"/>
      <point x="846.0" y="1212.0" type="line" smooth="yes"/>
      <point x="855.0" y="1246.0"/>
      <point x="869.0" y="1307.0"/>
      <point x="872.0" y="1340.0" type="qcurve"/>
      <point x="878.0" y="1340.0" type="line"/>
      <point x="881.0" y="1307.0"/>
      <point x="895.0" y="1246.0"/>
      <point x="903.0" y="1212.0" type="qcurve" smooth="yes"/>
      <point x="1194.0" y="-10.0" type="line"/>
      <point x="1338.0" y="-10.0" type="line"/>
      <point x="1694.0" y="1456.0" type="line"/>
      <point x="1501.0" y="1456.0" type="line"/>
      <point x="1242.0" y="281.0" type="line" smooth="yes"/>
      <point x="1234.0" y="247.0"/>
      <point x="1227.0" y="186.0"/>
      <point x="1224.0" y="153.0" type="qcurve"/>
      <point x="1218.0" y="153.0" type="line"/>
      <point x="1215.0" y="186.0"/>
      <point x="1204.0" y="246.0"/>
      <point x="1195.0" y="281.0" type="qcurve" smooth="yes"/>
      <point x="906.0" y="1456.0" type="line"/>
      <point x="740.0" y="1456.0" type="line"/>
      <point x="442.0" y="284.0" type="line" smooth="yes"/>
      <point x="433.0" y="250.0"/>
      <point x="419.0" y="189.0"/>
      <point x="416.0" y="156.0" type="qcurve"/>
      <point x="410.0" y="156.0" type="line"/>
      <point x="406.0" y="189.0"/>
      <point x="393.0" y="251.0"/>
      <point x="385.0" y="284.0" type="qcurve" smooth="yes"/>
      <point x="111.0" y="1456.0" type="line"/>
      <point x="50.0" y="1456.0" type="line"/>
    </contour>
  </outline>
</glyph>
<glyph name="X" format="2">
  <advance width="1222"/>
  <unicode hex="0058"/>
  <outline>
    <contour>
      <point x="25.0" y="0.0" type="line"/>
      <point x="237.0" y="0.0" type="line"/>
      <point x="659.0" y="670.0" type="line"/>
      <point x="673.0" y="670.0" type="line"/>
      <point x="1172.0" y="1456.0" type="line"/>
      <point x="960.0" y="1456.0" type="line"/>
      <point x="563.0" y="806.0" type="line"/>
      <point x="549.0" y="806.0" type="line"/>
    </contour>
    <contour>
      <point x="50.0" y="1456.0" type="line"/>
      <point x="609.0" y="670.0" type="line"/>
      <point x="639.0" y="670.0" type="line"/>
      <point x="1111.0" y="0.0" type="line"/>
      <point x="1197.0" y="0.0" type="line"/>
      <point x="623.0" y="806.0" type="line"/>
      <point x="593.0" y="806.0" type="line"/>
      <point x="136.0" y="1456.0" type="line"/>
    </contour>
  </outline>
</glyph>
<glyph name="c" format="2">
  <advance width="768"/>
  <unicode hex="0063"/>
  <anchor x="435.0" y="0" name="bottom"/>
  <outline>
    <contour>
      <point x="85.0" y="510.0" type="line" smooth="yes"/>
      <point x="85.0" y="272.0"/>
      <point x="272.0" y="-30.0"/>
      <point x="435.0" y="-30.0" type="qcurve" smooth="yes"/>
      <point x="585.0" y="-30.0"/>
      <point x="733.0" y="197.0"/>
      <point x="733.0" y="337.0" type="qcurve" smooth="yes"/>
      <point x="733.0" y="342.0" type="line"/>
      <point x="683.0" y="342.0" type="line"/>
      <point x="683.0" y="337.0" type="line" smooth="yes"/>
      <point x="683.0" y="252.0"/>
      <point x="565.0" y="122.0"/>
      <point x="435.0" y="122.0" type="qcurve" smooth="yes"/>
      <point x="285.0" y="122.0"/>
      <point x="139.0" y="347.0"/>
      <point x="139.0" y="510.0" type="qcurve" smooth="yes"/>
      <point x="139.0" y="542.0" type="line" smooth="yes"/>
      <point x="139.0" y="705.0"/>
      <point x="285.0" y="930.0"/>
      <point x="435.0" y="930.0" type="qcurve" smooth="yes"/>
      <point x="565.0" y="930.0"/>
      <point x="683.0" y="800.0"/>
      <point x="683.0" y="715.0" type="qcurve" smooth="yes"/>
      <point x="683.0" y="710.0" type="line"/>
      <point x="733.0" y="710.0" type="line"/>
      <point x="733.0" y="715.0" type="line" smooth="yes"/>
      <point x="733.0" y="855.0"/>
      <point x="585.0" y="1082.0"/>
      <point x="435.0" y="1082.0" type="qcurve" smooth="yes"/>
      <point x="272.0" y="1082.0"/>
      <point x="85.0" y="780.0"/>
      <point x="85.0" y="542.0" type="qcurve" smooth="yes"/>
    </contour>
  </outline>
</glyph>
<glyph name="d" format="2">
  <advance width="902"/>
  <unicode hex="0064"/>
  <outline>
    <contour>
      <point x="85.0" y="510.0" type="line" smooth="yes"/>
      <point x="85.0" y="280.0"/>
      <point x="259.0" y="-20.0"/>
      <point x="419.0" y="-20.0" type="qcurve" smooth="yes"/>
      <point x="514.0" y="-20.0"/>
      <point x="665.0" y="72.0"/>
      <point x="704.0" y="137.0" type="qcurve"/>
      <point x="706.0" y="137.0" type="line"/>
      <point x="706.0" y="0.0" type="line"/>
      <point x="754.0" y="0.0" type="line"/>
      <point x="754.0" y="1536.0" type="line"/>
      <point x="700.0" y="1536.0" type="line"/>
      <point x="700.0" y="928.0" type="line"/>
      <point x="655.0" y="993.0"/>
      <point x="514.0" y="1072.0"/>
      <point x="419.0" y="1072.0" type="qcurve" smooth="yes"/>
      <point x="259.0" y="1072.0"/>
      <point x="85.0" y="772.0"/>
      <point x="85.0" y="542.0" type="qcurve" smooth="yes"/>
    </contour>
    <contour>
      <point x="139.0" y="510.0" type="qcurve" smooth="yes"/>
      <point x="139.0" y="542.0" type="line" smooth="yes"/>
      <point x="139.0" y="702.0"/>
      <point x="279.0" y="920.0"/>
      <point x="429.0" y="920.0" type="qcurve" smooth="yes"/>
      <point x="529.0" y="920.0"/>
      <point x="669.0" y="810.0"/>
      <point x="700.0" y="740.0" type="qcurve"/>
      <point x="700.0" y="312.0" type="line"/>
      <point x="669.0" y="242.0"/>
      <point x="529.0" y="132.0"/>
      <point x="429.0" y="132.0" type="qcurve" smooth="yes"/>
      <point x="279.0" y="132.0"/>
      <point x="139.0" y="350.0"/>
    </contour>
  </outline>
</glyph>
<glyph name="j" format="2">
  <advance width="368"/>
  <unicode hex="006A"/>
  <outline>
    <contour>
      <point x="-94.0" y="-410.0" type="qcurve"/>
      <point x="-94.0" y="-260.0" type="line"/>
      <point x="-78.0" y="-266.0"/>
      <point x="-23.0" y="-280.0"/>
      <point x="0.0" y="-280.0" type="qcurve" smooth="yes"/>
      <point x="74.0" y="-280.0"/>
      <point x="157.0" y="-210.0"/>
      <point x="157.0" y="-130.0" type="qcurve" smooth="yes"/>
      <point x="157.0" y="1052.0" type="line"/>
      <point x="211.0" y="1052.0" type="line"/>
      <point x="211.0" y="-90.0" type="line" smooth="yes"/>
      <point x="211.0" y="-270.0"/>
      <point x="108.73684210526315" y="-436.0"/>
      <point x="10.0" y="-436.0" type="qcurve" smooth="yes"/>
      <point x="-15.611940298507463" y="-436.0"/>
      <point x="-77.36760055494096" y="-419.0"/>
    </contour>
    <contour>
      <point x="140.0" y="1370.0" type="qcurve" smooth="yes"/>
      <point x="140.0" y="1415.0"/>
      <point x="163.0" y="1476.0"/>
      <point x="184.0" y="1476.0" type="qcurve" smooth="yes"/>
      <point x="205.0" y="1476.0"/>
      <point x="228.0" y="1415.0"/>
      <point x="228.0" y="1370.0" type="qcurve" smooth="yes"/>
      <point x="228.0" y="1325.0"/>
      <point x="205.0" y="1264.0"/>
      <point x="184.0" y="1264.0" type="qcurve" smooth="yes"/>
      <point x="163.0" y="1264.0"/>
      <point x="140.0" y="1325.0"/>
    </contour>
  </outline>
</glyph>
<glyph name="k" format="2">
  <advance width="848"/>
  <unicode hex="006B"/>
  <outline>
    <contour>
      <point x="148.0" y="0.0" type="line"/>
      <point x="202.0" y="0.0" type="line"/>
      <point x="202.0" y="353.0" type="line"/>
      <point x="864.0" y="1052.0" type="line"/>
      <point x="624.0" y="1052.0" type="line"/>
      <point x="202.0" y="598.0" type="line"/>
      <point x="202.0" y="1536.0" type="line"/>
      <point x="148.0" y="1536.0" type="line"/>
    </contour>
    <contour>
      <point x="768.0" y="0.0" type="line"/>
      <point x="853.0" y="0.0" type="line"/>
      <point x="338.0" y="690.0" type="line"/>
      <point x="284.0" y="637.0" type="line"/>
    </contour>
  </outline>
</glyph>
<glyph name="u" format="2">
  <advance width="874"/>
  <unicode hex="0075"/>
  <anchor x="432.0" y="1052.0" name="top"/>
  <outline>
    <contour>
      <point x="138.0" y="373.0" type="qcurve" smooth="yes"/>
      <point x="138.0" y="1052.0" type="line"/>
      <point x="192.0" y="1052.0" type="line"/>
      <point x="192.0" y="371.0" type="line" smooth="yes"/>
      <point x="192.0" y="245.0"/>
      <point x="305.0" y="136.0"/>
      <point x="409.0" y="136.0" type="qcurve" smooth="yes"/>
      <point x="498.0" y="136.0"/>
      <point x="633.0" y="232.0"/>
      <point x="672.0" y="308.0" type="qcurve"/>
      <point x="672.0" y="1052.0" type="line"/>
      <point x="726.0" y="1052.0" type="line"/>
      <point x="726.0" y="0.0" type="line"/>
      <point x="678.0" y="0.0" type="line"/>
      <point x="678.0" y="135.0" type="line"/>
      <point x="676.0" y="135.0" type="line"/>
      <point x="632.0" y="63.0"/>
      <point x="489.0" y="-20.0"/>
      <point x="399.0" y="-20.0" type="qcurve" smooth="yes"/>
      <point x="279.0" y="-20.0"/>
      <point x="138.0" y="161.0"/>
    </contour>
  </outline>
</glyph>
<glyph name="w" format="2">
  <advance width="1510"/>
  <unicode hex="0077"/>
  <outline>
    <contour>
      <point x="25.0" y="1052.0" type="line"/>
      <point x="327.0" y="0.0" type="line"/>
      <point x="458.0" y="0.0" type="line"/>
      <point x="688.0" y="679.0" type="line" smooth="yes"/>
      <point x="701.0" y="718.0"/>
      <point x="745.0" y="865.0"/>
      <point x="751.0" y="905.0" type="qcurve"/>
      <point x="757.0" y="905.0" type="line"/>
      <point x="763.0" y="865.0"/>
      <point x="786.0" y="784.0"/>
      <point x="798.0" y="745.0" type="qcurve" smooth="yes"/>
      <point x="1024.0" y="0.0" type="line"/>
      <point x="1155.0" y="0.0" type="line"/>
      <point x="1485.0" y="1052.0" type="line"/>
      <point x="1311.0" y="1052.0" type="line"/>
      <point x="1126.0" y="360.0" type="line" smooth="yes"/>
      <point x="1116.0" y="321.0"/>
      <point x="1066.0" y="108.0"/>
      <point x="1059.0" y="68.0" type="qcurve"/>
      <point x="1053.0" y="68.0" type="line"/>
      <point x="1046.0" y="108.0"/>
      <point x="984.0" y="320.0"/>
      <point x="972.0" y="360.0" type="qcurve" smooth="yes"/>
      <point x="766.0" y="1052.0" type="line"/>
      <point x="663.0" y="1052.0" type="line"/>
      <point x="403.0" y="259.0" type="line" smooth="yes"/>
      <point x="390.0" y="219.0"/>
      <point x="370.0" y="139.0"/>
      <point x="363.0" y="99.0" type="qcurve"/>
      <point x="357.0" y="99.0" type="line"/>
      <point x="350.0" y="139.0"/>
      <point x="322.0" y="220.0"/>
      <point x="311.0" y="259.0" type="qcurve" smooth="yes"/>
      <point x="79.0" y="1052.0" type="line"/>
    </contour>
  </outline>
</glyph>
<glyph name="z" format="2">
  <advance width="852"/>
  <unicode hex="007A"/>
  <outline>
    <contour>
      <point x="70.0" y="0.0" type="line"/>
      <point x="788.0" y="0.0" type="line"/>
      <point x="788.0" y="152.0" type="line"/>
      <point x="126.0" y="152.0" type="line"/>
      <point x="758.0" y="919.0" type="line"/>
      <point x="758.0" y="1052.0" type="line"/>
      <point x="78.0" y="1052.0" type="line"/>
      <point x="78.0" y="900.0" type="line"/>
      <point x="702.0" y="900.0" type="line"/>
      <point x="70.0" y="136.0" type="line"/>
    </contour>
  </outline>
</glyph>
<glyph name="braceleft" format="2">
  <advance width="700"/>
  <unicode hex="007B"/>
  <outline>
    <contour>
      <point x="670.0" y="-312.0" type="line"/>
      <point x="444.0" y="-312.0"/>
      <point x="262" y="-44"/>
      <point x="299.0" y="111.0" type="qcurve" smooth="yes"/>
      <point x="349.0" y="322.0" type="line" smooth="yes"/>
      <point x="374" y="429"/>
      <point x="206.0" y="508.0"/>
      <point x="64.0" y="508.0" type="qcurve"/>
      <point x="64.0" y="640.0" type="line"/>
      <point x="206.0" y="640.0"/>
      <point x="361" y="716"/>
      <point x="336.0" y="823.0" type="qcurve" smooth="yes"/>
      <point x="286.0" y="1034.0" type="line" smooth="yes"/>
      <point x="249" y="1189"/>
      <point x="444.0" y="1460.0"/>
      <point x="670.0" y="1460.0" type="qcurve"/>
      <point x="670.0" y="1314.0" type="line"/>
      <point x="522.0" y="1314.0"/>
      <point x="362" y="1151"/>
      <point x="391.0" y="1030.0" type="qcurve" smooth="yes"/>
      <point x="441.0" y="819.0" type="line" smooth="yes"/>
      <point x="461" y="735"/>
      <point x="402.0" y="597.0"/>
      <point x="312.0" y="574.0" type="qcurve"/>
      <point x="403.0" y="552.0"/>
      <point x="468" y="420"/>
      <point x="448.0" y="336.0" type="qcurve" smooth="yes"/>
      <point x="398.0" y="125.0" type="line" smooth="yes"/>
      <point x="369" y="4"/>
      <point x="522.0" y="-166.0"/>
      <point x="670.0" y="-166.0" type="qcurve"/>
    </contour>
  </outline>
</glyph>
<glyph name="braceright" format="2">
  <advance width="700"/>
  <unicode hex="007D"/>
  <outline>
    <contour>
      <point x="31.0" y="-312.0" type="qcurve"/>
      <point x="31.0" y="-166.0" type="line"/>
      <point x="179.0" y="-166.0"/>
      <point x="332.0" y="4.0"/>
      <point x="303.0" y="125.0" type="qcurve" smooth="yes"/>
      <point x="253.0" y="336.0" type="line" smooth="yes"/>
      <point x="233.0" y="420.0"/>
      <point x="298.0" y="552.0"/>
      <point x="389.0" y="574.0" type="qcurve"/>
      <point x="299.0" y="597.0"/>
      <point x="240.0" y="735.0"/>
      <point x="260.0" y="819.0" type="qcurve" smooth="yes"/>
      <point x="310.0" y="1030.0" type="line" smooth="yes"/>
      <point x="339.0" y="1151.0"/>
      <point x="179.0" y="1314.0"/>
      <point x="31.0" y="1314.0" type="qcurve"/>
      <point x="31.0" y="1460.0" type="line"/>
      <point x="257.0" y="1460.0"/>
      <point x="452.0" y="1189.0"/>
      <point x="415.0" y="1034.0" type="qcurve" smooth="yes"/>
      <point x="365.0" y="823.0" type="line" smooth="yes"/>
      <point x="340.0" y="716.0"/>
      <point x="495.0" y="640.0"/>
      <point x="637.0" y="640.0" type="qcurve"/>
      <point x="637.0" y="508.0" type="line"/>
      <point x="495.0" y="508.0"/>
      <point x="327.0" y="429.0"/>
      <point x="352.0" y="322.0" type="qcurve" smooth="yes"/>
      <point x="402.0" y="111.0" type="line" smooth="yes"/>
      <point x="439.0" y="-44.0"/>
      <point x="257.0" y="-312.0"/>
    </contour>
  </outline>
</glyph>
<glyph name="ordfeminine" format="2">
  <advance width="916"/>
  <unicode hex="00AA"/>
  <guideline x="0" y="1681.0" angle="0" identifier="3CJlALCfkl"/>
  <guideline x="0" y="909.0" angle="0" identifier="Zdl6NZVQAy"/>
  <outline>
    <contour>
      <point x="606.0" y="862.0" type="line"/>
      <point x="606.0" y="821.0"/>
      <point x="626.0" y="736.0"/>
      <point x="649.0" y="706.0" type="qcurve"/>
      <point x="784.0" y="706.0" type="line"/>
      <point x="770.0" y="749.0"/>
      <point x="758.0" y="838.0"/>
      <point x="758.0" y="887.0" type="qcurve" smooth="yes"/>
      <point x="758.0" y="1201.0" type="line" smooth="yes"/>
      <point x="758.0" y="1338.0"/>
      <point x="599.0" y="1477.0"/>
      <point x="464.0" y="1477.0" type="qcurve" smooth="yes"/>
      <point x="337.0" y="1477.0"/>
      <point x="165.0" y="1356.0"/>
      <point x="165.0" y="1261.0" type="qcurve" smooth="yes"/>
      <point x="165.0" y="1234.0" type="line"/>
      <point x="320.0" y="1234.0" type="line"/>
      <point x="320.0" y="1247.0" type="line" smooth="yes"/>
      <point x="320.0" y="1292.0"/>
      <point x="395.0" y="1346.0"/>
      <point x="466.0" y="1346.0" type="qcurve" smooth="yes"/>
      <point x="533.0" y="1346.0"/>
      <point x="606.0" y="1276.0"/>
      <point x="606.0" y="1202.0" type="qcurve" smooth="yes"/>
    </contour>
    <contour>
      <point x="635.0" y="1149.0" type="line"/>
      <point x="477.0" y="1149.0" type="line" smooth="yes"/>
      <point x="308.0" y="1149.0"/>
      <point x="141.0" y="1028.0"/>
      <point x="141.0" y="918.0" type="qcurve" smooth="yes"/>
      <point x="141.0" y="816.0"/>
      <point x="268.0" y="692.0"/>
      <point x="387.0" y="692.0" type="qcurve" smooth="yes"/>
      <point x="488.0" y="692.0"/>
      <point x="619.0" y="788.0"/>
      <point x="641.0" y="837.0" type="qcurve"/>
      <point x="623.0" y="949.0" type="line"/>
      <point x="623.0" y="911.0"/>
      <point x="490.0" y="822.0"/>
      <point x="426.0" y="822.0" type="qcurve" smooth="yes"/>
      <point x="362.0" y="822.0"/>
      <point x="298.0" y="879.0"/>
      <point x="298.0" y="922.0" type="qcurve" smooth="yes"/>
      <point x="298.0" y="969.0"/>
      <point x="388.0" y="1042.0"/>
      <point x="478.0" y="1042.0" type="qcurve" smooth="yes"/>
      <point x="635.0" y="1042.0" type="line"/>
    </contour>
  </outline>
</glyph>
<glyph name="ordmasculine" format="2">
  <advance width="932"/>
  <unicode hex="00BA"/>
  <guideline x="0" y="1975.0" angle="0" identifier="Jnt0R9CyOf"/>
  <outline>
    <contour>
      <point x="123.0" y="1043.0" type="line"/>
      <point x="123.0" y="889.2686567164179"/>
      <point x="308.7910447761194" y="691.0"/>
      <point x="467.0" y="691.0" type="qcurve" smooth="yes"/>
      <point x="623.7164179104477" y="691.0"/>
      <point x="807.0" y="889.2686567164179"/>
      <point x="807.0" y="1043.0" type="qcurve"/>
      <point x="807.0" y="1124.0" type="line"/>
      <point x="807.0" y="1277.7313432835822"/>
      <point x="623.2089552238806" y="1477.0"/>
      <point x="465.0" y="1477.0" type="qcurve" smooth="yes"/>
      <point x="308.2835820895523" y="1477.0"/>
      <point x="123.0" y="1277.7313432835822"/>
      <point x="123.0" y="1124.0" type="qcurve"/>
    </contour>
    <contour>
      <point x="286.0" y="1124.0" type="line"/>
      <point x="286.0" y="1212.8059701492537"/>
      <point x="374.70149253731347" y="1336.0"/>
      <point x="465.0" y="1336.0" type="qcurve" smooth="yes"/>
      <point x="555.2985074626865" y="1336.0"/>
      <point x="645.0" y="1212.8059701492537"/>
      <point x="645.0" y="1124.0" type="qcurve"/>
      <point x="645.0" y="1043.0" type="line"/>
      <point x="645.0" y="951.955223880597"/>
      <point x="555.8059701492538" y="830.0"/>
      <point x="467.0" y="830.0" type="qcurve" smooth="yes"/>
      <point x="375.2089552238806" y="830.0"/>
      <point x="286.0" y="951.955223880597"/>
      <point x="286.0" y="1043.0" type="qcurve"/>
    </contour>
  </outline>
</glyph>
<glyph name="hungarumlaut" format="2">
  <advance width="1024"/>
  <unicode hex="02DD"/>
  <guideline x="0" y="901.0" angle="0" identifier="1emCWSQy5G"/>
  <guideline x="0" y="555.0" angle="0" identifier="s1MFYmxmed"/>
  <anchor x="344.0" y="1614.0" name="mkmktop_acc"/>
  <anchor x="291" y="1197" name="mkmktop_acc"/>
  <anchor x="591" y="1197" name="mkmktop_acc"/>
  <outline>
    <contour>
      <point x="315" y="1290" type="line"/>
      <point x="556" y="1584" type="line"/>
      <point x="699" y="1479" type="line"/>
      <point x="400" y="1204" type="line"/>
    </contour>
    <contour>
      <point x="625" y="1290" type="line"/>
      <point x="866" y="1584" type="line"/>
      <point x="1009" y="1479" type="line"/>
      <point x="710" y="1204" type="line"/>
    </contour>
  </outline>
</glyph>
<glyph name="uni20AD" format="2">
  <advance width="1024"/>
  <unicode hex="20AD"/>
  <outline>
    <contour>
      <point x="1021.0" y="809.0" type="line"/>
      <point x="475.0" y="809.0" type="line"/>
      <point x="387.0" y="708.0" type="line"/>
      <point x="267.0" y="708.0" type="line"/>
      <point x="267.0" y="809.0" type="line"/>
      <point x="-9.0" y="809.0" type="line"/>
      <point x="-9.0" y="661.0" type="line"/>
      <point x="345.0" y="661.0" type="line"/>
      <point x="381.0" y="697.0" type="line"/>
      <point x="569.0" y="697.0" type="line"/>
      <point x="595.0" y="661.0" type="line"/>
      <point x="1021.0" y="661.0" type="line"/>
    </contour>
    <contour>
      <point x="130.0" y="0.0" type="line"/>
      <point x="317.0" y="0.0" type="line"/>
      <point x="317.0" y="500.0" type="line"/>
      <point x="1037.0" y="1456.0" type="line"/>
      <point x="835.0" y="1456.0" type="line"/>
      <point x="317.0" y="769.0" type="line"/>
      <point x="317.0" y="1456.0" type="line"/>
      <point x="130.0" y="1456.0" type="line"/>
    </contour>
    <contour>
      <point x="845.0" y="0.0" type="line"/>
      <point x="1061.0" y="0.0" type="line"/>
      <point x="557.0" y="901.0" type="line"/>
      <point x="441.0" y="756.0" type="line"/>
    </contour>
  </outline>
</glyph>
<glyph name="approxequal" format="2">
  <advance width="1024"/>
  <unicode hex="2248"/>
  <outline>
    <contour>
      <point x="46.0" y="704.0" type="line"/>
      <point x="93.0" y="764.0"/>
      <point x="225.0" y="832.0"/>
      <point x="290.0" y="832.0" type="qcurve" smooth="yes"/>
      <point x="369.0" y="832.0"/>
      <point x="462.0" y="790.0"/>
      <point x="525.0" y="759.0" type="qcurve" smooth="yes"/>
      <point x="584.0" y="729.0"/>
      <point x="669.0" y="690.0"/>
      <point x="743.0" y="690.0" type="qcurve" smooth="yes"/>
      <point x="808.0" y="690.0"/>
      <point x="932.0" y="748.0"/>
      <point x="979.0" y="799.0" type="qcurve"/>
      <point x="979.0" y="996.0" type="line"/>
      <point x="932.0" y="936.0"/>
      <point x="807.0" y="868.0"/>
      <point x="742.0" y="868.0" type="qcurve" smooth="yes"/>
      <point x="668.0" y="868.0"/>
      <point x="583.0" y="908.0"/>
      <point x="524.0" y="938.0" type="qcurve" smooth="yes"/>
      <point x="461.0" y="969.0"/>
      <point x="369.0" y="1012.0"/>
      <point x="290.0" y="1011.0" type="qcurve" smooth="yes"/>
      <point x="225.0" y="1010.0"/>
      <point x="93.0" y="952.0"/>
      <point x="46.0" y="901.0" type="qcurve"/>
    </contour>
    <contour>
      <point x="45.0" y="287.0" type="line"/>
      <point x="92.0" y="347.0"/>
      <point x="224.0" y="414.0"/>
      <point x="289.0" y="414.0" type="qcurve" smooth="yes"/>
      <point x="368.0" y="414.0"/>
      <point x="461.0" y="372.0"/>
      <point x="524.0" y="341.0" type="qcurve" smooth="yes"/>
      <point x="583.0" y="311.0"/>
      <point x="668.0" y="272.0"/>
      <point x="742.0" y="272.0" type="qcurve" smooth="yes"/>
      <point x="807.0" y="272.0"/>
      <point x="931.0" y="330.0"/>
      <point x="978.0" y="381.0" type="qcurve"/>
      <point x="978.0" y="579.0" type="line"/>
      <point x="931.0" y="519.0"/>
      <point x="806.0" y="451.0"/>
      <point x="741.0" y="451.0" type="qcurve" smooth="yes"/>
      <point x="667.0" y="451.0"/>
      <point x="582.0" y="490.0"/>
      <point x="523.0" y="520.0" type="qcurve" smooth="yes"/>
      <point x="460.0" y="551.0"/>
      <point x="368.0" y="594.0"/>
      <point x="289.0" y="593.0" type="qcurve" smooth="yes"/>
      <point x="224.0" y="592.0"/>
      <point x="92.0" y="535.0"/>
      <point x="45.0" y="484.0" type="qcurve"/>
    </contour>
  </outline>
</glyph>
<glyph name="lessequal" format="2">
  <advance width="1024"/>
  <unicode hex="2264"/>
  <outline>
    <contour>
      <point x="913.0" y="253.0" type="line"/>
      <point x="95.0" y="602.0" type="line"/>
      <point x="95.0" y="746.0" type="line"/>
      <point x="913.0" y="1095.0" type="line"/>
      <point x="913.0" y="902.0" type="line"/>
      <point x="326.0" y="679.0" type="line"/>
      <point x="913.0" y="456.0" type="line"/>
    </contour>
    <contour>
      <point x="52.0" y="1.0" type="line"/>
      <point x="52.0" y="170.0" type="line"/>
      <point x="962.0" y="170.0" type="line"/>
      <point x="962.0" y="1.0" type="line"/>
    </contour>
  </outline>
</glyph>
